# Four-leaf clover band mesh
v 0.102508 -0.000589 0.000000
v 0.102497 0.000131 0.000000
v 0.102486 0.000267 0.000000
v 0.102467 0.000409 0.000000
v 0.102439 0.000563 0.000000
v 0.102399 0.000731 0.000000
v 0.102344 0.000916 0.000000
v 0.102273 0.001120 0.000000
v 0.102182 0.001345 0.000000
v 0.102067 0.001591 0.000000
v 0.101926 0.001861 0.000000
v 0.101755 0.002153 0.000000
v 0.101550 0.002468 0.000000
v 0.101308 0.002804 0.000000
v 0.101027 0.003161 0.000000
v 0.100703 0.003536 0.000000
v 0.100335 0.003928 0.000000
v 0.099919 0.004334 0.000000
v 0.099455 0.004751 0.000000
v 0.098940 0.005178 0.000000
v 0.098373 0.005612 0.000000
v 0.097754 0.006049 0.000000
v 0.097081 0.006487 0.000000
v 0.096355 0.006922 0.000000
v 0.095574 0.007353 0.000000
v 0.094740 0.007776 0.000000
v 0.093852 0.008189 0.000000
v 0.092911 0.008588 0.000000
v 0.091917 0.008971 0.000000
v 0.090871 0.009336 0.000000
v 0.089775 0.009680 0.000000
v 0.088629 0.010001 0.000000
v 0.087435 0.010297 0.000000
v 0.086194 0.010565 0.000000
v 0.084907 0.010804 0.000000
v 0.083576 0.011011 0.000000
v 0.082202 0.011185 0.000000
v 0.080788 0.011325 0.000000
v 0.079335 0.011428 0.000000
v 0.077844 0.011494 0.000000
v 0.076318 0.011520 0.000000
v 0.074758 0.011506 0.000000
v 0.073167 0.011451 0.000000
v 0.071545 0.011353 0.000000
v 0.069896 0.011211 0.000000
v 0.068222 0.011026 0.000000
v 0.066523 0.010795 0.000000
v 0.064803 0.010518 0.000000
v 0.063063 0.010195 0.000000
v 0.061305 0.009826 0.000000
v 0.059532 0.009409 0.000000
v 0.057745 0.008944 0.000000
v 0.055946 0.008432 0.000000
v 0.054138 0.007872 0.000000
v 0.052322 0.007265 0.000000
v 0.050501 0.006609 0.000000
v 0.048677 0.005905 0.000000
v 0.046851 0.005154 0.000000
v 0.045026 0.004355 0.000000
v 0.043203 0.003509 0.000000
v 0.041385 0.002617 0.000000
v 0.039574 0.001678 0.000000
v 0.037771 0.000693 0.000000
v 0.035978 -0.000337 0.000000
v 0.034197 -0.001411 0.000000
v 0.032430 -0.002529 0.000000
v 0.030679 -0.003690 0.000000
v 0.028945 -0.004893 0.000000
v 0.027231 -0.006137 0.000000
v 0.025538 -0.007421 0.000000
v 0.023867 -0.008745 0.000000
v 0.022221 -0.010106 0.000000
v 0.020601 -0.011505 0.000000
v 0.019008 -0.012939 0.000000
v 0.017444 -0.014408 0.000000
v 0.015910 -0.015910 0.000000
v 0.014408 -0.017444 0.000000
v 0.012939 -0.019008 0.000000
v 0.011505 -0.020601 0.000000
v 0.010106 -0.022221 0.000000
v 0.008745 -0.023867 0.000000
v 0.007421 -0.025538 0.000000
v 0.006137 -0.027231 0.000000
v 0.004893 -0.028945 0.000000
v 0.003690 -0.030679 0.000000
v 0.002529 -0.032430 0.000000
v 0.001411 -0.034197 0.000000
v 0.000337 -0.035978 0.000000
v -0.000693 -0.037771 0.000000
v -0.001678 -0.039574 0.000000
v -0.002617 -0.041385 0.000000
v -0.003509 -0.043203 0.000000
v -0.004355 -0.045026 0.000000
v -0.005154 -0.046851 0.000000
v -0.005905 -0.048677 0.000000
v -0.006609 -0.050501 0.000000
v -0.007265 -0.052322 0.000000
v -0.007872 -0.054138 0.000000
v -0.008432 -0.055946 0.000000
v -0.008944 -0.057745 0.000000
v -0.009409 -0.059532 0.000000
v -0.009826 -0.061305 0.000000
v -0.010195 -0.063063 0.000000
v -0.010518 -0.064803 0.000000
v -0.010795 -0.066523 0.000000
v -0.011026 -0.068222 0.000000
v -0.011211 -0.069896 0.000000
v -0.011353 -0.071545 0.000000
v -0.011451 -0.073167 0.000000
v -0.011506 -0.074758 0.000000
v -0.011520 -0.076318 0.000000
v -0.011494 -0.077844 0.000000
v -0.011428 -0.079335 0.000000
v -0.011325 -0.080788 0.000000
v -0.011185 -0.082202 0.000000
v -0.011011 -0.083576 0.000000
v -0.010804 -0.084907 0.000000
v -0.010565 -0.086194 0.000000
v -0.010297 -0.087435 0.000000
v -0.010001 -0.088629 0.000000
v -0.009680 -0.089775 0.000000
v -0.009336 -0.090871 0.000000
v -0.008971 -0.091917 0.000000
v -0.008588 -0.092911 0.000000
v -0.008189 -0.093852 0.000000
v -0.007776 -0.094740 0.000000
v -0.007353 -0.095574 0.000000
v -0.006922 -0.096355 0.000000
v -0.006487 -0.097081 0.000000
v -0.006049 -0.097754 0.000000
v -0.005612 -0.098373 0.000000
v -0.005178 -0.098940 0.000000
v -0.004751 -0.099455 0.000000
v -0.004334 -0.099919 0.000000
v -0.003928 -0.100335 0.000000
v -0.003536 -0.100703 0.000000
v -0.003161 -0.101027 0.000000
v -0.002804 -0.101308 0.000000
v -0.002468 -0.101550 0.000000
v -0.002153 -0.101755 0.000000
v -0.001861 -0.101926 0.000000
v -0.001591 -0.102067 0.000000
v -0.001345 -0.102182 0.000000
v -0.001120 -0.102273 0.000000
v -0.000916 -0.102344 0.000000
v -0.000731 -0.102399 0.000000
v -0.000563 -0.102439 0.000000
v -0.000409 -0.102467 0.000000
v -0.000267 -0.102486 0.000000
v -0.000131 -0.102497 0.000000
v -0.000000 -0.102500 0.000000
v 0.000131 -0.102497 0.000000
v 0.000267 -0.102486 0.000000
v 0.000409 -0.102467 0.000000
v 0.000563 -0.102439 0.000000
v 0.000731 -0.102399 0.000000
v 0.000916 -0.102344 0.000000
v 0.001120 -0.102273 0.000000
v 0.001345 -0.102182 0.000000
v 0.001591 -0.102067 0.000000
v 0.001861 -0.101926 0.000000
v 0.002153 -0.101755 0.000000
v 0.002468 -0.101550 0.000000
v 0.002804 -0.101308 0.000000
v 0.003161 -0.101027 0.000000
v 0.003536 -0.100703 0.000000
v 0.003928 -0.100335 0.000000
v 0.004334 -0.099919 0.000000
v 0.004751 -0.099455 0.000000
v 0.005178 -0.098940 0.000000
v 0.005612 -0.098373 0.000000
v 0.006049 -0.097754 0.000000
v 0.006487 -0.097081 0.000000
v 0.006922 -0.096355 0.000000
v 0.007353 -0.095574 0.000000
v 0.007776 -0.094740 0.000000
v 0.008189 -0.093852 0.000000
v 0.008588 -0.092911 0.000000
v 0.008971 -0.091917 0.000000
v 0.009336 -0.090871 0.000000
v 0.009680 -0.089775 0.000000
v 0.010001 -0.088629 0.000000
v 0.010297 -0.087435 0.000000
v 0.010565 -0.086194 0.000000
v 0.010804 -0.084907 0.000000
v 0.011011 -0.083576 0.000000
v 0.011185 -0.082202 0.000000
v 0.011325 -0.080788 0.000000
v 0.011428 -0.079335 0.000000
v 0.011494 -0.077844 0.000000
v 0.011520 -0.076318 0.000000
v 0.011506 -0.074758 0.000000
v 0.011451 -0.073167 0.000000
v 0.011353 -0.071545 0.000000
v 0.011211 -0.069896 0.000000
v 0.011026 -0.068222 0.000000
v 0.010795 -0.066523 0.000000
v 0.010518 -0.064803 0.000000
v 0.010195 -0.063063 0.000000
v 0.009826 -0.061305 0.000000
v 0.009409 -0.059532 0.000000
v 0.008944 -0.057745 0.000000
v 0.008432 -0.055946 0.000000
v 0.007872 -0.054138 0.000000
v 0.007265 -0.052322 0.000000
v 0.006609 -0.050501 0.000000
v 0.005905 -0.048677 0.000000
v 0.005154 -0.046851 0.000000
v 0.004355 -0.045026 0.000000
v 0.003509 -0.043203 0.000000
v 0.002617 -0.041385 0.000000
v 0.001678 -0.039574 0.000000
v 0.000693 -0.037771 0.000000
v -0.000337 -0.035978 0.000000
v -0.001411 -0.034197 0.000000
v -0.002529 -0.032430 0.000000
v -0.003690 -0.030679 0.000000
v -0.004893 -0.028945 0.000000
v -0.006137 -0.027231 0.000000
v -0.007421 -0.025538 0.000000
v -0.008745 -0.023867 0.000000
v -0.010106 -0.022221 0.000000
v -0.011505 -0.020601 0.000000
v -0.012939 -0.019008 0.000000
v -0.014408 -0.017444 0.000000
v -0.015910 -0.015910 0.000000
v -0.017444 -0.014408 0.000000
v -0.019008 -0.012939 0.000000
v -0.020601 -0.011505 0.000000
v -0.022221 -0.010106 0.000000
v -0.023867 -0.008745 0.000000
v -0.025538 -0.007421 0.000000
v -0.027231 -0.006137 0.000000
v -0.028945 -0.004893 0.000000
v -0.030679 -0.003690 0.000000
v -0.032430 -0.002529 0.000000
v -0.034197 -0.001411 0.000000
v -0.035978 -0.000337 0.000000
v -0.037771 0.000693 0.000000
v -0.039574 0.001678 0.000000
v -0.041385 0.002617 0.000000
v -0.043203 0.003509 0.000000
v -0.045026 0.004355 0.000000
v -0.046851 0.005154 0.000000
v -0.048677 0.005905 0.000000
v -0.050501 0.006609 0.000000
v -0.052322 0.007265 0.000000
v -0.054138 0.007872 0.000000
v -0.055946 0.008432 0.000000
v -0.057745 0.008944 0.000000
v -0.059532 0.009409 0.000000
v -0.061305 0.009826 0.000000
v -0.063063 0.010195 0.000000
v -0.064803 0.010518 0.000000
v -0.066523 0.010795 0.000000
v -0.068222 0.011026 0.000000
v -0.069896 0.011211 0.000000
v -0.071545 0.011353 0.000000
v -0.073167 0.011451 0.000000
v -0.074758 0.011506 0.000000
v -0.076318 0.011520 0.000000
v -0.077844 0.011494 0.000000
v -0.079335 0.011428 0.000000
v -0.080788 0.011325 0.000000
v -0.082202 0.011185 0.000000
v -0.083576 0.011011 0.000000
v -0.084907 0.010804 0.000000
v -0.086194 0.010565 0.000000
v -0.087435 0.010297 0.000000
v -0.088629 0.010001 0.000000
v -0.089775 0.009680 0.000000
v -0.090871 0.009336 0.000000
v -0.091917 0.008971 0.000000
v -0.092911 0.008588 0.000000
v -0.093852 0.008189 0.000000
v -0.094740 0.007776 0.000000
v -0.095574 0.007353 0.000000
v -0.096355 0.006922 0.000000
v -0.097081 0.006487 0.000000
v -0.097754 0.006049 0.000000
v -0.098373 0.005612 0.000000
v -0.098940 0.005178 0.000000
v -0.099455 0.004751 0.000000
v -0.099919 0.004334 0.000000
v -0.100335 0.003928 0.000000
v -0.100703 0.003536 0.000000
v -0.101027 0.003161 0.000000
v -0.101308 0.002804 0.000000
v -0.101550 0.002468 0.000000
v -0.101755 0.002153 0.000000
v -0.101926 0.001861 0.000000
v -0.102067 0.001591 0.000000
v -0.102182 0.001345 0.000000
v -0.102273 0.001120 0.000000
v -0.102344 0.000916 0.000000
v -0.102399 0.000731 0.000000
v -0.102439 0.000563 0.000000
v -0.102467 0.000409 0.000000
v -0.102486 0.000267 0.000000
v -0.102497 0.000131 0.000000
v -0.102500 0.000000 0.000000
v -0.102497 -0.000131 0.000000
v -0.102486 -0.000267 0.000000
v -0.102467 -0.000409 0.000000
v -0.102439 -0.000563 0.000000
v -0.102399 -0.000731 0.000000
v -0.102344 -0.000916 0.000000
v -0.102273 -0.001120 0.000000
v -0.102182 -0.001345 0.000000
v -0.102067 -0.001591 0.000000
v -0.101926 -0.001861 0.000000
v -0.101755 -0.002153 0.000000
v -0.101550 -0.002468 0.000000
v -0.101308 -0.002804 0.000000
v -0.101027 -0.003161 0.000000
v -0.100703 -0.003536 0.000000
v -0.100335 -0.003928 0.000000
v -0.099919 -0.004334 0.000000
v -0.099455 -0.004751 0.000000
v -0.098940 -0.005178 0.000000
v -0.098373 -0.005612 0.000000
v -0.097754 -0.006049 0.000000
v -0.097081 -0.006487 0.000000
v -0.096355 -0.006922 0.000000
v -0.095574 -0.007353 0.000000
v -0.094740 -0.007776 0.000000
v -0.093852 -0.008189 0.000000
v -0.092911 -0.008588 0.000000
v -0.091917 -0.008971 0.000000
v -0.090871 -0.009336 0.000000
v -0.089775 -0.009680 0.000000
v -0.088629 -0.010001 0.000000
v -0.087435 -0.010297 0.000000
v -0.086194 -0.010565 0.000000
v -0.084907 -0.010804 0.000000
v -0.083576 -0.011011 0.000000
v -0.082202 -0.011185 0.000000
v -0.080788 -0.011325 0.000000
v -0.079335 -0.011428 0.000000
v -0.077844 -0.011494 0.000000
v -0.076318 -0.011520 0.000000
v -0.074758 -0.011506 0.000000
v -0.073167 -0.011451 0.000000
v -0.071545 -0.011353 0.000000
v -0.069896 -0.011211 0.000000
v -0.068222 -0.011026 0.000000
v -0.066523 -0.010795 0.000000
v -0.064803 -0.010518 0.000000
v -0.063063 -0.010195 0.000000
v -0.061305 -0.009826 0.000000
v -0.059532 -0.009409 0.000000
v -0.057745 -0.008944 0.000000
v -0.055946 -0.008432 0.000000
v -0.054138 -0.007872 0.000000
v -0.052322 -0.007265 0.000000
v -0.050501 -0.006609 0.000000
v -0.048677 -0.005905 0.000000
v -0.046851 -0.005154 0.000000
v -0.045026 -0.004355 0.000000
v -0.043203 -0.003509 0.000000
v -0.041385 -0.002617 0.000000
v -0.039574 -0.001678 0.000000
v -0.037771 -0.000693 0.000000
v -0.035978 0.000337 0.000000
v -0.034197 0.001411 0.000000
v -0.032430 0.002529 0.000000
v -0.030679 0.003690 0.000000
v -0.028945 0.004893 0.000000
v -0.027231 0.006137 0.000000
v -0.025538 0.007421 0.000000
v -0.023867 0.008745 0.000000
v -0.022221 0.010106 0.000000
v -0.020601 0.011505 0.000000
v -0.019008 0.012939 0.000000
v -0.017444 0.014408 0.000000
v -0.015910 0.015910 0.000000
v -0.014408 0.017444 0.000000
v -0.012939 0.019008 0.000000
v -0.011505 0.020601 0.000000
v -0.010106 0.022221 0.000000
v -0.008745 0.023867 0.000000
v -0.007421 0.025538 0.000000
v -0.006137 0.027231 0.000000
v -0.004893 0.028945 0.000000
v -0.003690 0.030679 0.000000
v -0.002529 0.032430 0.000000
v -0.001411 0.034197 0.000000
v -0.000337 0.035978 0.000000
v 0.000693 0.037771 0.000000
v 0.001678 0.039574 0.000000
v 0.002617 0.041385 0.000000
v 0.003509 0.043203 0.000000
v 0.004355 0.045026 0.000000
v 0.005154 0.046851 0.000000
v 0.005905 0.048677 0.000000
v 0.006609 0.050501 0.000000
v 0.007265 0.052322 0.000000
v 0.007872 0.054138 0.000000
v 0.008432 0.055946 0.000000
v 0.008944 0.057745 0.000000
v 0.009409 0.059532 0.000000
v 0.009826 0.061305 0.000000
v 0.010195 0.063063 0.000000
v 0.010518 0.064803 0.000000
v 0.010795 0.066523 0.000000
v 0.011026 0.068222 0.000000
v 0.011211 0.069896 0.000000
v 0.011353 0.071545 0.000000
v 0.011451 0.073167 0.000000
v 0.011506 0.074758 0.000000
v 0.011520 0.076318 0.000000
v 0.011494 0.077844 0.000000
v 0.011428 0.079335 0.000000
v 0.011325 0.080788 0.000000
v 0.011185 0.082202 0.000000
v 0.011011 0.083576 0.000000
v 0.010804 0.084907 0.000000
v 0.010565 0.086194 0.000000
v 0.010297 0.087435 0.000000
v 0.010001 0.088629 0.000000
v 0.009680 0.089775 0.000000
v 0.009336 0.090871 0.000000
v 0.008971 0.091917 0.000000
v 0.008588 0.092911 0.000000
v 0.008189 0.093852 0.000000
v 0.007776 0.094740 0.000000
v 0.007353 0.095574 0.000000
v 0.006922 0.096355 0.000000
v 0.006487 0.097081 0.000000
v 0.006049 0.097754 0.000000
v 0.005612 0.098373 0.000000
v 0.005178 0.098940 0.000000
v 0.004751 0.099455 0.000000
v 0.004334 0.099919 0.000000
v 0.003928 0.100335 0.000000
v 0.003536 0.100703 0.000000
v 0.003161 0.101027 0.000000
v 0.002804 0.101308 0.000000
v 0.002468 0.101550 0.000000
v 0.002153 0.101755 0.000000
v 0.001861 0.101926 0.000000
v 0.001591 0.102067 0.000000
v 0.001345 0.102182 0.000000
v 0.001120 0.102273 0.000000
v 0.000916 0.102344 0.000000
v 0.000731 0.102399 0.000000
v 0.000563 0.102439 0.000000
v 0.000409 0.102467 0.000000
v 0.000267 0.102486 0.000000
v 0.000131 0.102497 0.000000
v 0.000000 0.102500 0.000000
v -0.000131 0.102497 0.000000
v -0.000267 0.102486 0.000000
v -0.000409 0.102467 0.000000
v -0.000563 0.102439 0.000000
v -0.000731 0.102399 0.000000
v -0.000916 0.102344 0.000000
v -0.001120 0.102273 0.000000
v -0.001345 0.102182 0.000000
v -0.001591 0.102067 0.000000
v -0.001861 0.101926 0.000000
v -0.002153 0.101755 0.000000
v -0.002468 0.101550 0.000000
v -0.002804 0.101308 0.000000
v -0.003161 0.101027 0.000000
v -0.003536 0.100703 0.000000
v -0.003928 0.100335 0.000000
v -0.004334 0.099919 0.000000
v -0.004751 0.099455 0.000000
v -0.005178 0.098940 0.000000
v -0.005612 0.098373 0.000000
v -0.006049 0.097754 0.000000
v -0.006487 0.097081 0.000000
v -0.006922 0.096355 0.000000
v -0.007353 0.095574 0.000000
v -0.007776 0.094740 0.000000
v -0.008189 0.093852 0.000000
v -0.008588 0.092911 0.000000
v -0.008971 0.091917 0.000000
v -0.009336 0.090871 0.000000
v -0.009680 0.089775 0.000000
v -0.010001 0.088629 0.000000
v -0.010297 0.087435 0.000000
v -0.010565 0.086194 0.000000
v -0.010804 0.084907 0.000000
v -0.011011 0.083576 0.000000
v -0.011185 0.082202 0.000000
v -0.011325 0.080788 0.000000
v -0.011428 0.079335 0.000000
v -0.011494 0.077844 0.000000
v -0.011520 0.076318 0.000000
v -0.011506 0.074758 0.000000
v -0.011451 0.073167 0.000000
v -0.011353 0.071545 0.000000
v -0.011211 0.069896 0.000000
v -0.011026 0.068222 0.000000
v -0.010795 0.066523 0.000000
v -0.010518 0.064803 0.000000
v -0.010195 0.063063 0.000000
v -0.009826 0.061305 0.000000
v -0.009409 0.059532 0.000000
v -0.008944 0.057745 0.000000
v -0.008432 0.055946 0.000000
v -0.007872 0.054138 0.000000
v -0.007265 0.052322 0.000000
v -0.006609 0.050501 0.000000
v -0.005905 0.048677 0.000000
v -0.005154 0.046851 0.000000
v -0.004355 0.045026 0.000000
v -0.003509 0.043203 0.000000
v -0.002617 0.041385 0.000000
v -0.001678 0.039574 0.000000
v -0.000693 0.037771 0.000000
v 0.000337 0.035978 0.000000
v 0.001411 0.034197 0.000000
v 0.002529 0.032430 0.000000
v 0.003690 0.030679 0.000000
v 0.004893 0.028945 0.000000
v 0.006137 0.027231 0.000000
v 0.007421 0.025538 0.000000
v 0.008745 0.023867 0.000000
v 0.010106 0.022221 0.000000
v 0.011505 0.020601 0.000000
v 0.012939 0.019008 0.000000
v 0.014408 0.017444 0.000000
v 0.015910 0.015910 0.000000
v 0.017444 0.014408 0.000000
v 0.019008 0.012939 0.000000
v 0.020601 0.011505 0.000000
v 0.022221 0.010106 0.000000
v 0.023867 0.008745 0.000000
v 0.025538 0.007421 0.000000
v 0.027231 0.006137 0.000000
v 0.028945 0.004893 0.000000
v 0.030679 0.003690 0.000000
v 0.032430 0.002529 0.000000
v 0.034197 0.001411 0.000000
v 0.035978 0.000337 0.000000
v 0.037771 -0.000693 0.000000
v 0.039574 -0.001678 0.000000
v 0.041385 -0.002617 0.000000
v 0.043203 -0.003509 0.000000
v 0.045026 -0.004355 0.000000
v 0.046851 -0.005154 0.000000
v 0.048677 -0.005905 0.000000
v 0.050501 -0.006609 0.000000
v 0.052322 -0.007265 0.000000
v 0.054138 -0.007872 0.000000
v 0.055946 -0.008432 0.000000
v 0.057745 -0.008944 0.000000
v 0.059532 -0.009409 0.000000
v 0.061305 -0.009826 0.000000
v 0.063063 -0.010195 0.000000
v 0.064803 -0.010518 0.000000
v 0.066523 -0.010795 0.000000
v 0.068222 -0.011026 0.000000
v 0.069896 -0.011211 0.000000
v 0.071545 -0.011353 0.000000
v 0.073167 -0.011451 0.000000
v 0.074758 -0.011506 0.000000
v 0.076318 -0.011520 0.000000
v 0.077844 -0.011494 0.000000
v 0.079335 -0.011428 0.000000
v 0.080788 -0.011325 0.000000
v 0.082202 -0.011185 0.000000
v 0.083576 -0.011011 0.000000
v 0.084907 -0.010804 0.000000
v 0.086194 -0.010565 0.000000
v 0.087435 -0.010297 0.000000
v 0.088629 -0.010001 0.000000
v 0.089775 -0.009680 0.000000
v 0.090871 -0.009336 0.000000
v 0.091917 -0.008971 0.000000
v 0.092911 -0.008588 0.000000
v 0.093852 -0.008189 0.000000
v 0.094740 -0.007776 0.000000
v 0.095574 -0.007353 0.000000
v 0.096355 -0.006922 0.000000
v 0.097081 -0.006487 0.000000
v 0.097754 -0.006049 0.000000
v 0.098373 -0.005612 0.000000
v 0.098940 -0.005178 0.000000
v 0.099455 -0.004751 0.000000
v 0.099919 -0.004334 0.000000
v 0.100335 -0.003928 0.000000
v 0.100703 -0.003536 0.000000
v 0.101027 -0.003161 0.000000
v 0.101308 -0.002804 0.000000
v 0.101550 -0.002468 0.000000
v 0.101755 -0.002153 0.000000
v 0.101926 -0.001861 0.000000
v 0.102067 -0.001591 0.000000
v 0.102182 -0.001345 0.000000
v 0.102273 -0.001120 0.000000
v 0.102344 -0.000916 0.000000
v 0.102399 -0.000731 0.000000
v 0.102439 -0.000563 0.000000
v 0.102467 -0.000409 0.000000
v 0.102486 -0.000267 0.000000
v 0.102535 0.000455 0.000000
v 0.147492 0.000589 0.000000
v 0.147435 0.002486 0.000000
v 0.147240 0.004964 0.000000
v 0.146916 0.007428 0.000000
v 0.146466 0.009869 0.000000
v 0.145891 0.012281 0.000000
v 0.145195 0.014658 0.000000
v 0.144381 0.016993 0.000000
v 0.143452 0.019282 0.000000
v 0.142415 0.021519 0.000000
v 0.141271 0.023700 0.000000
v 0.140027 0.025822 0.000000
v 0.138687 0.027881 0.000000
v 0.137255 0.029875 0.000000
v 0.135736 0.031801 0.000000
v 0.134134 0.033659 0.000000
v 0.132453 0.035446 0.000000
v 0.130698 0.037161 0.000000
v 0.128872 0.038804 0.000000
v 0.126979 0.040375 0.000000
v 0.125022 0.041872 0.000000
v 0.123005 0.043297 0.000000
v 0.120930 0.044647 0.000000
v 0.118801 0.045925 0.000000
v 0.116620 0.047129 0.000000
v 0.114389 0.048260 0.000000
v 0.112112 0.049317 0.000000
v 0.109790 0.050302 0.000000
v 0.107426 0.051214 0.000000
v 0.105022 0.052053 0.000000
v 0.102580 0.052820 0.000000
v 0.100102 0.053514 0.000000
v 0.097590 0.054136 0.000000
v 0.095047 0.054686 0.000000
v 0.092473 0.055163 0.000000
v 0.089871 0.055569 0.000000
v 0.087242 0.055902 0.000000
v 0.084589 0.056164 0.000000
v 0.081914 0.056354 0.000000
v 0.079218 0.056473 0.000000
v 0.076502 0.056520 0.000000
v 0.073770 0.056495 0.000000
v 0.071023 0.056400 0.000000
v 0.068262 0.056233 0.000000
v 0.065490 0.055995 0.000000
v 0.062708 0.055687 0.000000
v 0.059919 0.055308 0.000000
v 0.057124 0.054858 0.000000
v 0.054324 0.054339 0.000000
v 0.051523 0.053750 0.000000
v 0.048722 0.053091 0.000000
v 0.045922 0.052364 0.000000
v 0.043126 0.051568 0.000000
v 0.040335 0.050703 0.000000
v 0.037552 0.049771 0.000000
v 0.034778 0.048772 0.000000
v 0.032015 0.047707 0.000000
v 0.029266 0.046575 0.000000
v 0.026531 0.045379 0.000000
v 0.023814 0.044117 0.000000
v 0.021115 0.042792 0.000000
v 0.018436 0.041404 0.000000
v 0.015780 0.039954 0.000000
v 0.013148 0.038443 0.000000
v 0.010543 0.036871 0.000000
v 0.007965 0.035240 0.000000
v 0.005416 0.033550 0.000000
v 0.002899 0.031803 0.000000
v 0.000415 0.030000 0.000000
v -0.002034 0.028142 0.000000
v -0.004447 0.026231 0.000000
v -0.006822 0.024266 0.000000
v -0.009158 0.022251 0.000000
v -0.011452 0.020185 0.000000
v -0.013703 0.018071 0.000000
v -0.015910 0.015910 0.000000
v -0.018071 0.013703 0.000000
v -0.020185 0.011452 0.000000
v -0.022251 0.009158 0.000000
v -0.024266 0.006822 0.000000
v -0.026231 0.004447 0.000000
v -0.028142 0.002034 0.000000
v -0.030000 -0.000415 0.000000
v -0.031803 -0.002899 0.000000
v -0.033550 -0.005416 0.000000
v -0.035240 -0.007965 0.000000
v -0.036871 -0.010543 0.000000
v -0.038443 -0.013148 0.000000
v -0.039954 -0.015780 0.000000
v -0.041404 -0.018436 0.000000
v -0.042792 -0.021115 0.000000
v -0.044117 -0.023814 0.000000
v -0.045379 -0.026531 0.000000
v -0.046575 -0.029266 0.000000
v -0.047707 -0.032015 0.000000
v -0.048772 -0.034778 0.000000
v -0.049771 -0.037552 0.000000
v -0.050703 -0.040335 0.000000
v -0.051568 -0.043126 0.000000
v -0.052364 -0.045922 0.000000
v -0.053091 -0.048722 0.000000
v -0.053750 -0.051523 0.000000
v -0.054339 -0.054324 0.000000
v -0.054858 -0.057124 0.000000
v -0.055308 -0.059919 0.000000
v -0.055687 -0.062708 0.000000
v -0.055995 -0.065490 0.000000
v -0.056233 -0.068262 0.000000
v -0.056400 -0.071023 0.000000
v -0.056495 -0.073770 0.000000
v -0.056520 -0.076502 0.000000
v -0.056473 -0.079218 0.000000
v -0.056354 -0.081914 0.000000
v -0.056164 -0.084589 0.000000
v -0.055902 -0.087242 0.000000
v -0.055569 -0.089871 0.000000
v -0.055163 -0.092473 0.000000
v -0.054686 -0.095047 0.000000
v -0.054136 -0.097590 0.000000
v -0.053514 -0.100102 0.000000
v -0.052820 -0.102580 0.000000
v -0.052053 -0.105022 0.000000
v -0.051214 -0.107426 0.000000
v -0.050302 -0.109790 0.000000
v -0.049317 -0.112112 0.000000
v -0.048260 -0.114389 0.000000
v -0.047129 -0.116620 0.000000
v -0.045925 -0.118801 0.000000
v -0.044647 -0.120930 0.000000
v -0.043297 -0.123005 0.000000
v -0.041872 -0.125022 0.000000
v -0.040375 -0.126979 0.000000
v -0.038804 -0.128872 0.000000
v -0.037161 -0.130698 0.000000
v -0.035446 -0.132453 0.000000
v -0.033659 -0.134134 0.000000
v -0.031801 -0.135736 0.000000
v -0.029875 -0.137255 0.000000
v -0.027881 -0.138687 0.000000
v -0.025822 -0.140027 0.000000
v -0.023700 -0.141271 0.000000
v -0.021519 -0.142415 0.000000
v -0.019282 -0.143452 0.000000
v -0.016993 -0.144381 0.000000
v -0.014658 -0.145195 0.000000
v -0.012281 -0.145891 0.000000
v -0.009869 -0.146466 0.000000
v -0.007428 -0.146916 0.000000
v -0.004964 -0.147240 0.000000
v -0.002486 -0.147435 0.000000
v -0.000000 -0.147500 0.000000
v 0.002486 -0.147435 0.000000
v 0.004964 -0.147240 0.000000
v 0.007428 -0.146916 0.000000
v 0.009869 -0.146466 0.000000
v 0.012281 -0.145891 0.000000
v 0.014658 -0.145195 0.000000
v 0.016993 -0.144381 0.000000
v 0.019282 -0.143452 0.000000
v 0.021519 -0.142415 0.000000
v 0.023700 -0.141271 0.000000
v 0.025822 -0.140027 0.000000
v 0.027881 -0.138687 0.000000
v 0.029875 -0.137255 0.000000
v 0.031801 -0.135736 0.000000
v 0.033659 -0.134134 0.000000
v 0.035446 -0.132453 0.000000
v 0.037161 -0.130698 0.000000
v 0.038804 -0.128872 0.000000
v 0.040375 -0.126979 0.000000
v 0.041872 -0.125022 0.000000
v 0.043297 -0.123005 0.000000
v 0.044647 -0.120930 0.000000
v 0.045925 -0.118801 0.000000
v 0.047129 -0.116620 0.000000
v 0.048260 -0.114389 0.000000
v 0.049317 -0.112112 0.000000
v 0.050302 -0.109790 0.000000
v 0.051214 -0.107426 0.000000
v 0.052053 -0.105022 0.000000
v 0.052820 -0.102580 0.000000
v 0.053514 -0.100102 0.000000
v 0.054136 -0.097590 0.000000
v 0.054686 -0.095047 0.000000
v 0.055163 -0.092473 0.000000
v 0.055569 -0.089871 0.000000
v 0.055902 -0.087242 0.000000
v 0.056164 -0.084589 0.000000
v 0.056354 -0.081914 0.000000
v 0.056473 -0.079218 0.000000
v 0.056520 -0.076502 0.000000
v 0.056495 -0.073770 0.000000
v 0.056400 -0.071023 0.000000
v 0.056233 -0.068262 0.000000
v 0.055995 -0.065490 0.000000
v 0.055687 -0.062708 0.000000
v 0.055308 -0.059919 0.000000
v 0.054858 -0.057124 0.000000
v 0.054339 -0.054324 0.000000
v 0.053750 -0.051523 0.000000
v 0.053091 -0.048722 0.000000
v 0.052364 -0.045922 0.000000
v 0.051568 -0.043126 0.000000
v 0.050703 -0.040335 0.000000
v 0.049771 -0.037552 0.000000
v 0.048772 -0.034778 0.000000
v 0.047707 -0.032015 0.000000
v 0.046575 -0.029266 0.000000
v 0.045379 -0.026531 0.000000
v 0.044117 -0.023814 0.000000
v 0.042792 -0.021115 0.000000
v 0.041404 -0.018436 0.000000
v 0.039954 -0.015780 0.000000
v 0.038443 -0.013148 0.000000
v 0.036871 -0.010543 0.000000
v 0.035240 -0.007965 0.000000
v 0.033550 -0.005416 0.000000
v 0.031803 -0.002899 0.000000
v 0.030000 -0.000415 0.000000
v 0.028142 0.002034 0.000000
v 0.026231 0.004447 0.000000
v 0.024266 0.006822 0.000000
v 0.022251 0.009158 0.000000
v 0.020185 0.011452 0.000000
v 0.018071 0.013703 0.000000
v 0.015910 0.015910 0.000000
v 0.013703 0.018071 0.000000
v 0.011452 0.020185 0.000000
v 0.009158 0.022251 0.000000
v 0.006822 0.024266 0.000000
v 0.004447 0.026231 0.000000
v 0.002034 0.028142 0.000000
v -0.000415 0.030000 0.000000
v -0.002899 0.031803 0.000000
v -0.005416 0.033550 0.000000
v -0.007965 0.035240 0.000000
v -0.010543 0.036871 0.000000
v -0.013148 0.038443 0.000000
v -0.015780 0.039954 0.000000
v -0.018436 0.041404 0.000000
v -0.021115 0.042792 0.000000
v -0.023814 0.044117 0.000000
v -0.026531 0.045379 0.000000
v -0.029266 0.046575 0.000000
v -0.032015 0.047707 0.000000
v -0.034778 0.048772 0.000000
v -0.037552 0.049771 0.000000
v -0.040335 0.050703 0.000000
v -0.043126 0.051568 0.000000
v -0.045922 0.052364 0.000000
v -0.048722 0.053091 0.000000
v -0.051523 0.053750 0.000000
v -0.054324 0.054339 0.000000
v -0.057124 0.054858 0.000000
v -0.059919 0.055308 0.000000
v -0.062708 0.055687 0.000000
v -0.065490 0.055995 0.000000
v -0.068262 0.056233 0.000000
v -0.071023 0.056400 0.000000
v -0.073770 0.056495 0.000000
v -0.076502 0.056520 0.000000
v -0.079218 0.056473 0.000000
v -0.081914 0.056354 0.000000
v -0.084589 0.056164 0.000000
v -0.087242 0.055902 0.000000
v -0.089871 0.055569 0.000000
v -0.092473 0.055163 0.000000
v -0.095047 0.054686 0.000000
v -0.097590 0.054136 0.000000
v -0.100102 0.053514 0.000000
v -0.102580 0.052820 0.000000
v -0.105022 0.052053 0.000000
v -0.107426 0.051214 0.000000
v -0.109790 0.050302 0.000000
v -0.112112 0.049317 0.000000
v -0.114389 0.048260 0.000000
v -0.116620 0.047129 0.000000
v -0.118801 0.045925 0.000000
v -0.120930 0.044647 0.000000
v -0.123005 0.043297 0.000000
v -0.125022 0.041872 0.000000
v -0.126979 0.040375 0.000000
v -0.128872 0.038804 0.000000
v -0.130698 0.037161 0.000000
v -0.132453 0.035446 0.000000
v -0.134134 0.033659 0.000000
v -0.135736 0.031801 0.000000
v -0.137255 0.029875 0.000000
v -0.138687 0.027881 0.000000
v -0.140027 0.025822 0.000000
v -0.141271 0.023700 0.000000
v -0.142415 0.021519 0.000000
v -0.143452 0.019282 0.000000
v -0.144381 0.016993 0.000000
v -0.145195 0.014658 0.000000
v -0.145891 0.012281 0.000000
v -0.146466 0.009869 0.000000
v -0.146916 0.007428 0.000000
v -0.147240 0.004964 0.000000
v -0.147435 0.002486 0.000000
v -0.147500 0.000000 0.000000
v -0.147435 -0.002486 0.000000
v -0.147240 -0.004964 0.000000
v -0.146916 -0.007428 0.000000
v -0.146466 -0.009869 0.000000
v -0.145891 -0.012281 0.000000
v -0.145195 -0.014658 0.000000
v -0.144381 -0.016993 0.000000
v -0.143452 -0.019282 0.000000
v -0.142415 -0.021519 0.000000
v -0.141271 -0.023700 0.000000
v -0.140027 -0.025822 0.000000
v -0.138687 -0.027881 0.000000
v -0.137255 -0.029875 0.000000
v -0.135736 -0.031801 0.000000
v -0.134134 -0.033659 0.000000
v -0.132453 -0.035446 0.000000
v -0.130698 -0.037161 0.000000
v -0.128872 -0.038804 0.000000
v -0.126979 -0.040375 0.000000
v -0.125022 -0.041872 0.000000
v -0.123005 -0.043297 0.000000
v -0.120930 -0.044647 0.000000
v -0.118801 -0.045925 0.000000
v -0.116620 -0.047129 0.000000
v -0.114389 -0.048260 0.000000
v -0.112112 -0.049317 0.000000
v -0.109790 -0.050302 0.000000
v -0.107426 -0.051214 0.000000
v -0.105022 -0.052053 0.000000
v -0.102580 -0.052820 0.000000
v -0.100102 -0.053514 0.000000
v -0.097590 -0.054136 0.000000
v -0.095047 -0.054686 0.000000
v -0.092473 -0.055163 0.000000
v -0.089871 -0.055569 0.000000
v -0.087242 -0.055902 0.000000
v -0.084589 -0.056164 0.000000
v -0.081914 -0.056354 0.000000
v -0.079218 -0.056473 0.000000
v -0.076502 -0.056520 0.000000
v -0.073770 -0.056495 0.000000
v -0.071023 -0.056400 0.000000
v -0.068262 -0.056233 0.000000
v -0.065490 -0.055995 0.000000
v -0.062708 -0.055687 0.000000
v -0.059919 -0.055308 0.000000
v -0.057124 -0.054858 0.000000
v -0.054324 -0.054339 0.000000
v -0.051523 -0.053750 0.000000
v -0.048722 -0.053091 0.000000
v -0.045922 -0.052364 0.000000
v -0.043126 -0.051568 0.000000
v -0.040335 -0.050703 0.000000
v -0.037552 -0.049771 0.000000
v -0.034778 -0.048772 0.000000
v -0.032015 -0.047707 0.000000
v -0.029266 -0.046575 0.000000
v -0.026531 -0.045379 0.000000
v -0.023814 -0.044117 0.000000
v -0.021115 -0.042792 0.000000
v -0.018436 -0.041404 0.000000
v -0.015780 -0.039954 0.000000
v -0.013148 -0.038443 0.000000
v -0.010543 -0.036871 0.000000
v -0.007965 -0.035240 0.000000
v -0.005416 -0.033550 0.000000
v -0.002899 -0.031803 0.000000
v -0.000415 -0.030000 0.000000
v 0.002034 -0.028142 0.000000
v 0.004447 -0.026231 0.000000
v 0.006822 -0.024266 0.000000
v 0.009158 -0.022251 0.000000
v 0.011452 -0.020185 0.000000
v 0.013703 -0.018071 0.000000
v 0.015910 -0.015910 0.000000
v 0.018071 -0.013703 0.000000
v 0.020185 -0.011452 0.000000
v 0.022251 -0.009158 0.000000
v 0.024266 -0.006822 0.000000
v 0.026231 -0.004447 0.000000
v 0.028142 -0.002034 0.000000
v 0.030000 0.000415 0.000000
v 0.031803 0.002899 0.000000
v 0.033550 0.005416 0.000000
v 0.035240 0.007965 0.000000
v 0.036871 0.010543 0.000000
v 0.038443 0.013148 0.000000
v 0.039954 0.015780 0.000000
v 0.041404 0.018436 0.000000
v 0.042792 0.021115 0.000000
v 0.044117 0.023814 0.000000
v 0.045379 0.026531 0.000000
v 0.046575 0.029266 0.000000
v 0.047707 0.032015 0.000000
v 0.048772 0.034778 0.000000
v 0.049771 0.037552 0.000000
v 0.050703 0.040335 0.000000
v 0.051568 0.043126 0.000000
v 0.052364 0.045922 0.000000
v 0.053091 0.048722 0.000000
v 0.053750 0.051523 0.000000
v 0.054339 0.054324 0.000000
v 0.054858 0.057124 0.000000
v 0.055308 0.059919 0.000000
v 0.055687 0.062708 0.000000
v 0.055995 0.065490 0.000000
v 0.056233 0.068262 0.000000
v 0.056400 0.071023 0.000000
v 0.056495 0.073770 0.000000
v 0.056520 0.076502 0.000000
v 0.056473 0.079218 0.000000
v 0.056354 0.081914 0.000000
v 0.056164 0.084589 0.000000
v 0.055902 0.087242 0.000000
v 0.055569 0.089871 0.000000
v 0.055163 0.092473 0.000000
v 0.054686 0.095047 0.000000
v 0.054136 0.097590 0.000000
v 0.053514 0.100102 0.000000
v 0.052820 0.102580 0.000000
v 0.052053 0.105022 0.000000
v 0.051214 0.107426 0.000000
v 0.050302 0.109790 0.000000
v 0.049317 0.112112 0.000000
v 0.048260 0.114389 0.000000
v 0.047129 0.116620 0.000000
v 0.045925 0.118801 0.000000
v 0.044647 0.120930 0.000000
v 0.043297 0.123005 0.000000
v 0.041872 0.125022 0.000000
v 0.040375 0.126979 0.000000
v 0.038804 0.128872 0.000000
v 0.037161 0.130698 0.000000
v 0.035446 0.132453 0.000000
v 0.033659 0.134134 0.000000
v 0.031801 0.135736 0.000000
v 0.029875 0.137255 0.000000
v 0.027881 0.138687 0.000000
v 0.025822 0.140027 0.000000
v 0.023700 0.141271 0.000000
v 0.021519 0.142415 0.000000
v 0.019282 0.143452 0.000000
v 0.016993 0.144381 0.000000
v 0.014658 0.145195 0.000000
v 0.012281 0.145891 0.000000
v 0.009869 0.146466 0.000000
v 0.007428 0.146916 0.000000
v 0.004964 0.147240 0.000000
v 0.002486 0.147435 0.000000
v 0.000000 0.147500 0.000000
v -0.002486 0.147435 0.000000
v -0.004964 0.147240 0.000000
v -0.007428 0.146916 0.000000
v -0.009869 0.146466 0.000000
v -0.012281 0.145891 0.000000
v -0.014658 0.145195 0.000000
v -0.016993 0.144381 0.000000
v -0.019282 0.143452 0.000000
v -0.021519 0.142415 0.000000
v -0.023700 0.141271 0.000000
v -0.025822 0.140027 0.000000
v -0.027881 0.138687 0.000000
v -0.029875 0.137255 0.000000
v -0.031801 0.135736 0.000000
v -0.033659 0.134134 0.000000
v -0.035446 0.132453 0.000000
v -0.037161 0.130698 0.000000
v -0.038804 0.128872 0.000000
v -0.040375 0.126979 0.000000
v -0.041872 0.125022 0.000000
v -0.043297 0.123005 0.000000
v -0.044647 0.120930 0.000000
v -0.045925 0.118801 0.000000
v -0.047129 0.116620 0.000000
v -0.048260 0.114389 0.000000
v -0.049317 0.112112 0.000000
v -0.050302 0.109790 0.000000
v -0.051214 0.107426 0.000000
v -0.052053 0.105022 0.000000
v -0.052820 0.102580 0.000000
v -0.053514 0.100102 0.000000
v -0.054136 0.097590 0.000000
v -0.054686 0.095047 0.000000
v -0.055163 0.092473 0.000000
v -0.055569 0.089871 0.000000
v -0.055902 0.087242 0.000000
v -0.056164 0.084589 0.000000
v -0.056354 0.081914 0.000000
v -0.056473 0.079218 0.000000
v -0.056520 0.076502 0.000000
v -0.056495 0.073770 0.000000
v -0.056400 0.071023 0.000000
v -0.056233 0.068262 0.000000
v -0.055995 0.065490 0.000000
v -0.055687 0.062708 0.000000
v -0.055308 0.059919 0.000000
v -0.054858 0.057124 0.000000
v -0.054339 0.054324 0.000000
v -0.053750 0.051523 0.000000
v -0.053091 0.048722 0.000000
v -0.052364 0.045922 0.000000
v -0.051568 0.043126 0.000000
v -0.050703 0.040335 0.000000
v -0.049771 0.037552 0.000000
v -0.048772 0.034778 0.000000
v -0.047707 0.032015 0.000000
v -0.046575 0.029266 0.000000
v -0.045379 0.026531 0.000000
v -0.044117 0.023814 0.000000
v -0.042792 0.021115 0.000000
v -0.041404 0.018436 0.000000
v -0.039954 0.015780 0.000000
v -0.038443 0.013148 0.000000
v -0.036871 0.010543 0.000000
v -0.035240 0.007965 0.000000
v -0.033550 0.005416 0.000000
v -0.031803 0.002899 0.000000
v -0.030000 0.000415 0.000000
v -0.028142 -0.002034 0.000000
v -0.026231 -0.004447 0.000000
v -0.024266 -0.006822 0.000000
v -0.022251 -0.009158 0.000000
v -0.020185 -0.011452 0.000000
v -0.018071 -0.013703 0.000000
v -0.015910 -0.015910 0.000000
v -0.013703 -0.018071 0.000000
v -0.011452 -0.020185 0.000000
v -0.009158 -0.022251 0.000000
v -0.006822 -0.024266 0.000000
v -0.004447 -0.026231 0.000000
v -0.002034 -0.028142 0.000000
v 0.000415 -0.030000 0.000000
v 0.002899 -0.031803 0.000000
v 0.005416 -0.033550 0.000000
v 0.007965 -0.035240 0.000000
v 0.010543 -0.036871 0.000000
v 0.013148 -0.038443 0.000000
v 0.015780 -0.039954 0.000000
v 0.018436 -0.041404 0.000000
v 0.021115 -0.042792 0.000000
v 0.023814 -0.044117 0.000000
v 0.026531 -0.045379 0.000000
v 0.029266 -0.046575 0.000000
v 0.032015 -0.047707 0.000000
v 0.034778 -0.048772 0.000000
v 0.037552 -0.049771 0.000000
v 0.040335 -0.050703 0.000000
v 0.043126 -0.051568 0.000000
v 0.045922 -0.052364 0.000000
v 0.048722 -0.053091 0.000000
v 0.051523 -0.053750 0.000000
v 0.054324 -0.054339 0.000000
v 0.057124 -0.054858 0.000000
v 0.059919 -0.055308 0.000000
v 0.062708 -0.055687 0.000000
v 0.065490 -0.055995 0.000000
v 0.068262 -0.056233 0.000000
v 0.071023 -0.056400 0.000000
v 0.073770 -0.056495 0.000000
v 0.076502 -0.056520 0.000000
v 0.079218 -0.056473 0.000000
v 0.081914 -0.056354 0.000000
v 0.084589 -0.056164 0.000000
v 0.087242 -0.055902 0.000000
v 0.089871 -0.055569 0.000000
v 0.092473 -0.055163 0.000000
v 0.095047 -0.054686 0.000000
v 0.097590 -0.054136 0.000000
v 0.100102 -0.053514 0.000000
v 0.102580 -0.052820 0.000000
v 0.105022 -0.052053 0.000000
v 0.107426 -0.051214 0.000000
v 0.109790 -0.050302 0.000000
v 0.112112 -0.049317 0.000000
v 0.114389 -0.048260 0.000000
v 0.116620 -0.047129 0.000000
v 0.118801 -0.045925 0.000000
v 0.120930 -0.044647 0.000000
v 0.123005 -0.043297 0.000000
v 0.125022 -0.041872 0.000000
v 0.126979 -0.040375 0.000000
v 0.128872 -0.038804 0.000000
v 0.130698 -0.037161 0.000000
v 0.132453 -0.035446 0.000000
v 0.134134 -0.033659 0.000000
v 0.135736 -0.031801 0.000000
v 0.137255 -0.029875 0.000000
v 0.138687 -0.027881 0.000000
v 0.140027 -0.025822 0.000000
v 0.141271 -0.023700 0.000000
v 0.142415 -0.021519 0.000000
v 0.143452 -0.019282 0.000000
v 0.144381 -0.016993 0.000000
v 0.145195 -0.014658 0.000000
v 0.145891 -0.012281 0.000000
v 0.146466 -0.009869 0.000000
v 0.146916 -0.007428 0.000000
v 0.147240 -0.004964 0.000000
v 0.147396 -0.003073 0.000000
f 1 2 602 601
f 2 3 603 602
f 3 4 604 603
f 4 5 605 604
f 5 6 606 605
f 6 7 607 606
f 7 8 608 607
f 8 9 609 608
f 9 10 610 609
f 10 11 611 610
f 11 12 612 611
f 12 13 613 612
f 13 14 614 613
f 14 15 615 614
f 15 16 616 615
f 16 17 617 616
f 17 18 618 617
f 18 19 619 618
f 19 20 620 619
f 20 21 621 620
f 21 22 622 621
f 22 23 623 622
f 23 24 624 623
f 24 25 625 624
f 25 26 626 625
f 26 27 627 626
f 27 28 628 627
f 28 29 629 628
f 29 30 630 629
f 30 31 631 630
f 31 32 632 631
f 32 33 633 632
f 33 34 634 633
f 34 35 635 634
f 35 36 636 635
f 36 37 637 636
f 37 38 638 637
f 38 39 639 638
f 39 40 640 639
f 40 41 641 640
f 41 42 642 641
f 42 43 643 642
f 43 44 644 643
f 44 45 645 644
f 45 46 646 645
f 46 47 647 646
f 47 48 648 647
f 48 49 649 648
f 49 50 650 649
f 50 51 651 650
f 51 52 652 651
f 52 53 653 652
f 53 54 654 653
f 54 55 655 654
f 55 56 656 655
f 56 57 657 656
f 57 58 658 657
f 58 59 659 658
f 59 60 660 659
f 60 61 661 660
f 61 62 662 661
f 62 63 663 662
f 63 64 664 663
f 64 65 665 664
f 65 66 666 665
f 66 67 667 666
f 67 68 668 667
f 68 69 669 668
f 69 70 670 669
f 70 71 671 670
f 71 72 672 671
f 72 73 673 672
f 73 74 674 673
f 74 75 675 674
f 75 76 676 675
f 76 77 677 676
f 77 78 678 677
f 78 79 679 678
f 79 80 680 679
f 80 81 681 680
f 81 82 682 681
f 82 83 683 682
f 83 84 684 683
f 84 85 685 684
f 85 86 686 685
f 86 87 687 686
f 87 88 688 687
f 88 89 689 688
f 89 90 690 689
f 90 91 691 690
f 91 92 692 691
f 92 93 693 692
f 93 94 694 693
f 94 95 695 694
f 95 96 696 695
f 96 97 697 696
f 97 98 698 697
f 98 99 699 698
f 99 100 700 699
f 100 101 701 700
f 101 102 702 701
f 102 103 703 702
f 103 104 704 703
f 104 105 705 704
f 105 106 706 705
f 106 107 707 706
f 107 108 708 707
f 108 109 709 708
f 109 110 710 709
f 110 111 711 710
f 111 112 712 711
f 112 113 713 712
f 113 114 714 713
f 114 115 715 714
f 115 116 716 715
f 116 117 717 716
f 117 118 718 717
f 118 119 719 718
f 119 120 720 719
f 120 121 721 720
f 121 122 722 721
f 122 123 723 722
f 123 124 724 723
f 124 125 725 724
f 125 126 726 725
f 126 127 727 726
f 127 128 728 727
f 128 129 729 728
f 129 130 730 729
f 130 131 731 730
f 131 132 732 731
f 132 133 733 732
f 133 134 734 733
f 134 135 735 734
f 135 136 736 735
f 136 137 737 736
f 137 138 738 737
f 138 139 739 738
f 139 140 740 739
f 140 141 741 740
f 141 142 742 741
f 142 143 743 742
f 143 144 744 743
f 144 145 745 744
f 145 146 746 745
f 146 147 747 746
f 147 148 748 747
f 148 149 749 748
f 149 150 750 749
f 150 151 751 750
f 151 152 752 751
f 152 153 753 752
f 153 154 754 753
f 154 155 755 754
f 155 156 756 755
f 156 157 757 756
f 157 158 758 757
f 158 159 759 758
f 159 160 760 759
f 160 161 761 760
f 161 162 762 761
f 162 163 763 762
f 163 164 764 763
f 164 165 765 764
f 165 166 766 765
f 166 167 767 766
f 167 168 768 767
f 168 169 769 768
f 169 170 770 769
f 170 171 771 770
f 171 172 772 771
f 172 173 773 772
f 173 174 774 773
f 174 175 775 774
f 175 176 776 775
f 176 177 777 776
f 177 178 778 777
f 178 179 779 778
f 179 180 780 779
f 180 181 781 780
f 181 182 782 781
f 182 183 783 782
f 183 184 784 783
f 184 185 785 784
f 185 186 786 785
f 186 187 787 786
f 187 188 788 787
f 188 189 789 788
f 189 190 790 789
f 190 191 791 790
f 191 192 792 791
f 192 193 793 792
f 193 194 794 793
f 194 195 795 794
f 195 196 796 795
f 196 197 797 796
f 197 198 798 797
f 198 199 799 798
f 199 200 800 799
f 200 201 801 800
f 201 202 802 801
f 202 203 803 802
f 203 204 804 803
f 204 205 805 804
f 205 206 806 805
f 206 207 807 806
f 207 208 808 807
f 208 209 809 808
f 209 210 810 809
f 210 211 811 810
f 211 212 812 811
f 212 213 813 812
f 213 214 814 813
f 214 215 815 814
f 215 216 816 815
f 216 217 817 816
f 217 218 818 817
f 218 219 819 818
f 219 220 820 819
f 220 221 821 820
f 221 222 822 821
f 222 223 823 822
f 223 224 824 823
f 224 225 825 824
f 225 226 826 825
f 226 227 827 826
f 227 228 828 827
f 228 229 829 828
f 229 230 830 829
f 230 231 831 830
f 231 232 832 831
f 232 233 833 832
f 233 234 834 833
f 234 235 835 834
f 235 236 836 835
f 236 237 837 836
f 237 238 838 837
f 238 239 839 838
f 239 240 840 839
f 240 241 841 840
f 241 242 842 841
f 242 243 843 842
f 243 244 844 843
f 244 245 845 844
f 245 246 846 845
f 246 247 847 846
f 247 248 848 847
f 248 249 849 848
f 249 250 850 849
f 250 251 851 850
f 251 252 852 851
f 252 253 853 852
f 253 254 854 853
f 254 255 855 854
f 255 256 856 855
f 256 257 857 856
f 257 258 858 857
f 258 259 859 858
f 259 260 860 859
f 260 261 861 860
f 261 262 862 861
f 262 263 863 862
f 263 264 864 863
f 264 265 865 864
f 265 266 866 865
f 266 267 867 866
f 267 268 868 867
f 268 269 869 868
f 269 270 870 869
f 270 271 871 870
f 271 272 872 871
f 272 273 873 872
f 273 274 874 873
f 274 275 875 874
f 275 276 876 875
f 276 277 877 876
f 277 278 878 877
f 278 279 879 878
f 279 280 880 879
f 280 281 881 880
f 281 282 882 881
f 282 283 883 882
f 283 284 884 883
f 284 285 885 884
f 285 286 886 885
f 286 287 887 886
f 287 288 888 887
f 288 289 889 888
f 289 290 890 889
f 290 291 891 890
f 291 292 892 891
f 292 293 893 892
f 293 294 894 893
f 294 295 895 894
f 295 296 896 895
f 296 297 897 896
f 297 298 898 897
f 298 299 899 898
f 299 300 900 899
f 300 301 901 900
f 301 302 902 901
f 302 303 903 902
f 303 304 904 903
f 304 305 905 904
f 305 306 906 905
f 306 307 907 906
f 307 308 908 907
f 308 309 909 908
f 309 310 910 909
f 310 311 911 910
f 311 312 912 911
f 312 313 913 912
f 313 314 914 913
f 314 315 915 914
f 315 316 916 915
f 316 317 917 916
f 317 318 918 917
f 318 319 919 918
f 319 320 920 919
f 320 321 921 920
f 321 322 922 921
f 322 323 923 922
f 323 324 924 923
f 324 325 925 924
f 325 326 926 925
f 326 327 927 926
f 327 328 928 927
f 328 329 929 928
f 329 330 930 929
f 330 331 931 930
f 331 332 932 931
f 332 333 933 932
f 333 334 934 933
f 334 335 935 934
f 335 336 936 935
f 336 337 937 936
f 337 338 938 937
f 338 339 939 938
f 339 340 940 939
f 340 341 941 940
f 341 342 942 941
f 342 343 943 942
f 343 344 944 943
f 344 345 945 944
f 345 346 946 945
f 346 347 947 946
f 347 348 948 947
f 348 349 949 948
f 349 350 950 949
f 350 351 951 950
f 351 352 952 951
f 352 353 953 952
f 353 354 954 953
f 354 355 955 954
f 355 356 956 955
f 356 357 957 956
f 357 358 958 957
f 358 359 959 958
f 359 360 960 959
f 360 361 961 960
f 361 362 962 961
f 362 363 963 962
f 363 364 964 963
f 364 365 965 964
f 365 366 966 965
f 366 367 967 966
f 367 368 968 967
f 368 369 969 968
f 369 370 970 969
f 370 371 971 970
f 371 372 972 971
f 372 373 973 972
f 373 374 974 973
f 374 375 975 974
f 375 376 976 975
f 376 377 977 976
f 377 378 978 977
f 378 379 979 978
f 379 380 980 979
f 380 381 981 980
f 381 382 982 981
f 382 383 983 982
f 383 384 984 983
f 384 385 985 984
f 385 386 986 985
f 386 387 987 986
f 387 388 988 987
f 388 389 989 988
f 389 390 990 989
f 390 391 991 990
f 391 392 992 991
f 392 393 993 992
f 393 394 994 993
f 394 395 995 994
f 395 396 996 995
f 396 397 997 996
f 397 398 998 997
f 398 399 999 998
f 399 400 1000 999
f 400 401 1001 1000
f 401 402 1002 1001
f 402 403 1003 1002
f 403 404 1004 1003
f 404 405 1005 1004
f 405 406 1006 1005
f 406 407 1007 1006
f 407 408 1008 1007
f 408 409 1009 1008
f 409 410 1010 1009
f 410 411 1011 1010
f 411 412 1012 1011
f 412 413 1013 1012
f 413 414 1014 1013
f 414 415 1015 1014
f 415 416 1016 1015
f 416 417 1017 1016
f 417 418 1018 1017
f 418 419 1019 1018
f 419 420 1020 1019
f 420 421 1021 1020
f 421 422 1022 1021
f 422 423 1023 1022
f 423 424 1024 1023
f 424 425 1025 1024
f 425 426 1026 1025
f 426 427 1027 1026
f 427 428 1028 1027
f 428 429 1029 1028
f 429 430 1030 1029
f 430 431 1031 1030
f 431 432 1032 1031
f 432 433 1033 1032
f 433 434 1034 1033
f 434 435 1035 1034
f 435 436 1036 1035
f 436 437 1037 1036
f 437 438 1038 1037
f 438 439 1039 1038
f 439 440 1040 1039
f 440 441 1041 1040
f 441 442 1042 1041
f 442 443 1043 1042
f 443 444 1044 1043
f 444 445 1045 1044
f 445 446 1046 1045
f 446 447 1047 1046
f 447 448 1048 1047
f 448 449 1049 1048
f 449 450 1050 1049
f 450 451 1051 1050
f 451 452 1052 1051
f 452 453 1053 1052
f 453 454 1054 1053
f 454 455 1055 1054
f 455 456 1056 1055
f 456 457 1057 1056
f 457 458 1058 1057
f 458 459 1059 1058
f 459 460 1060 1059
f 460 461 1061 1060
f 461 462 1062 1061
f 462 463 1063 1062
f 463 464 1064 1063
f 464 465 1065 1064
f 465 466 1066 1065
f 466 467 1067 1066
f 467 468 1068 1067
f 468 469 1069 1068
f 469 470 1070 1069
f 470 471 1071 1070
f 471 472 1072 1071
f 472 473 1073 1072
f 473 474 1074 1073
f 474 475 1075 1074
f 475 476 1076 1075
f 476 477 1077 1076
f 477 478 1078 1077
f 478 479 1079 1078
f 479 480 1080 1079
f 480 481 1081 1080
f 481 482 1082 1081
f 482 483 1083 1082
f 483 484 1084 1083
f 484 485 1085 1084
f 485 486 1086 1085
f 486 487 1087 1086
f 487 488 1088 1087
f 488 489 1089 1088
f 489 490 1090 1089
f 490 491 1091 1090
f 491 492 1092 1091
f 492 493 1093 1092
f 493 494 1094 1093
f 494 495 1095 1094
f 495 496 1096 1095
f 496 497 1097 1096
f 497 498 1098 1097
f 498 499 1099 1098
f 499 500 1100 1099
f 500 501 1101 1100
f 501 502 1102 1101
f 502 503 1103 1102
f 503 504 1104 1103
f 504 505 1105 1104
f 505 506 1106 1105
f 506 507 1107 1106
f 507 508 1108 1107
f 508 509 1109 1108
f 509 510 1110 1109
f 510 511 1111 1110
f 511 512 1112 1111
f 512 513 1113 1112
f 513 514 1114 1113
f 514 515 1115 1114
f 515 516 1116 1115
f 516 517 1117 1116
f 517 518 1118 1117
f 518 519 1119 1118
f 519 520 1120 1119
f 520 521 1121 1120
f 521 522 1122 1121
f 522 523 1123 1122
f 523 524 1124 1123
f 524 525 1125 1124
f 525 526 1126 1125
f 526 527 1127 1126
f 527 528 1128 1127
f 528 529 1129 1128
f 529 530 1130 1129
f 530 531 1131 1130
f 531 532 1132 1131
f 532 533 1133 1132
f 533 534 1134 1133
f 534 535 1135 1134
f 535 536 1136 1135
f 536 537 1137 1136
f 537 538 1138 1137
f 538 539 1139 1138
f 539 540 1140 1139
f 540 541 1141 1140
f 541 542 1142 1141
f 542 543 1143 1142
f 543 544 1144 1143
f 544 545 1145 1144
f 545 546 1146 1145
f 546 547 1147 1146
f 547 548 1148 1147
f 548 549 1149 1148
f 549 550 1150 1149
f 550 551 1151 1150
f 551 552 1152 1151
f 552 553 1153 1152
f 553 554 1154 1153
f 554 555 1155 1154
f 555 556 1156 1155
f 556 557 1157 1156
f 557 558 1158 1157
f 558 559 1159 1158
f 559 560 1160 1159
f 560 561 1161 1160
f 561 562 1162 1161
f 562 563 1163 1162
f 563 564 1164 1163
f 564 565 1165 1164
f 565 566 1166 1165
f 566 567 1167 1166
f 567 568 1168 1167
f 568 569 1169 1168
f 569 570 1170 1169
f 570 571 1171 1170
f 571 572 1172 1171
f 572 573 1173 1172
f 573 574 1174 1173
f 574 575 1175 1174
f 575 576 1176 1175
f 576 577 1177 1176
f 577 578 1178 1177
f 578 579 1179 1178
f 579 580 1180 1179
f 580 581 1181 1180
f 581 582 1182 1181
f 582 583 1183 1182
f 583 584 1184 1183
f 584 585 1185 1184
f 585 586 1186 1185
f 586 587 1187 1186
f 587 588 1188 1187
f 588 589 1189 1188
f 589 590 1190 1189
f 590 591 1191 1190
f 591 592 1192 1191
f 592 593 1193 1192
f 593 594 1194 1193
f 594 595 1195 1194
f 595 596 1196 1195
f 596 597 1197 1196
f 597 598 1198 1197
f 598 599 1199 1198
f 599 600 1200 1199
f 600 1 601 1200
